<?xml version="1.0" encoding="utf-8"?>
<!-- Generator: Adobe Illustrator 22.0.1, SVG Export Plug-In . SVG Version: 6.00 Build 0)  -->
<svg version="1.1" id="Capa_1" xmlns="http://www.w3.org/2000/svg" xmlns:xlink="http://www.w3.org/1999/xlink" x="0px" y="0px"
	 viewBox="0 0 19.7 23.1" style="enable-background:new 0 0 19.7 23.1;" xml:space="preserve">
<g>
	<path d="M5.7,15.3H17c1.3,0,2.3-1,2.3-2.3V8.3c0,0,0,0,0,0c0,0,0,0,0,0c0,0,0,0,0,0c0,0,0,0,0,0s0,0,0,0c0,0,0,0,0,0c0,0,0,0,0,0
		c0,0,0,0,0,0c0,0,0,0,0,0c0,0,0,0,0,0c0,0,0,0,0,0c0,0,0,0,0,0c0,0,0,0,0,0c0,0,0,0,0,0c0,0,0,0,0,0c0,0,0,0,0,0c0,0,0,0,0,0
		c0,0,0,0,0,0c0,0,0,0,0,0s0,0,0,0c0,0,0,0,0,0c0,0,0,0,0,0c0,0,0,0,0,0c0,0,0,0,0,0c0,0,0,0,0,0c0,0,0,0,0,0c0,0,0,0,0,0s0,0,0,0
		c0,0,0,0,0,0c0,0,0,0,0,0l-14.3-2v-2c0,0,0,0,0-0.1c0,0,0,0,0,0c0,0,0,0,0,0c0,0,0,0,0,0c0,0,0,0,0,0c0,0,0,0,0,0c0,0,0,0,0,0
		c0,0,0,0,0,0c0,0,0,0,0,0c0,0,0,0,0,0c0,0,0,0,0,0c0,0,0,0,0,0c0,0,0,0,0,0c0,0,0,0,0,0c0,0,0,0,0,0c0,0,0,0,0,0c0,0,0,0,0,0
		c0,0,0,0,0,0c0,0,0,0,0,0c0,0,0,0,0,0c0,0,0,0,0,0c0,0,0,0-0.1,0L1.1,1.9c-0.3-0.1-0.6,0-0.7,0.3s0,0.6,0.3,0.7l2.7,1.2v2.6v0.4
		v3.1V13v3.5c0,1.2,0.9,2.2,2,2.3c-0.2,0.3-0.3,0.7-0.3,1.2c0,1.3,1,2.3,2.3,2.3s2.3-1,2.3-2.3c0-0.4-0.1-0.8-0.3-1.2h5.1
		c-0.2,0.3-0.3,0.7-0.3,1.2c0,1.3,1,2.3,2.3,2.3c1.3,0,2.3-1,2.3-2.3s-1-2.3-2.3-2.3H5.7c-0.7,0-1.2-0.5-1.2-1.2V15
		C4.9,15.2,5.3,15.3,5.7,15.3z M8.6,20c0,0.6-0.5,1.2-1.2,1.2S6.3,20.7,6.3,20c0-0.6,0.5-1.2,1.2-1.2S8.6,19.4,8.6,20z M17.6,20
		c0,0.6-0.5,1.2-1.2,1.2c-0.6,0-1.2-0.5-1.2-1.2c0-0.6,0.5-1.2,1.2-1.2C17.1,18.9,17.6,19.4,17.6,20z M17,14.2H5.7
		c-0.7,0-1.2-0.5-1.2-1.2v-2.8V7.1V6.9l13.6,1.9V13C18.2,13.7,17.7,14.2,17,14.2z"/>
</g>
</svg>
