<svg id="圖層_3" data-name="圖層 3" xmlns="http://www.w3.org/2000/svg" viewBox="0 0 99.21 99.21"><defs><style>.cls-1,.cls-2{fill:#262626;}.cls-2{fill-rule:evenodd;}</style></defs><title>yt</title><path class="cls-1" d="M49.61.41a49.18,49.18,0,1,1-34.78,14.4A49.12,49.12,0,0,1,49.61.41ZM81.66,17.54A45.33,45.33,0,1,0,95,49.62,45.17,45.17,0,0,0,81.66,17.54Z"/><path class="cls-2" d="M74.24,39.13s-.52-3.62-2-5.2a7.18,7.18,0,0,0-5-2.23c-7-.52-17.56-.52-17.56-.52h-.06s-10.51,0-17.54.52a7.15,7.15,0,0,0-5,2.23c-1.5,1.58-2,5.2-2,5.2a79.9,79.9,0,0,0-.52,8.45v4A78.35,78.35,0,0,0,25,60s.52,3.63,2,5.23c1.9,2.1,4.41,2,5.55,2.24,4,.4,17.08.54,17.08.54s10.54,0,17.56-.54a7.07,7.07,0,0,0,5-2.24c1.5-1.6,2-5.23,2-5.23a83.08,83.08,0,0,0,.49-8.44v-4c0-4.2-.49-8.45-.49-8.45ZM58,49.05,44.42,56.37V41.67L50.57,45Z"/></svg>