<svg id="fb" xmlns="http://www.w3.org/2000/svg" width="60" height="60" viewBox="0 0 60 60">
  <metadata><?xpacket begin="﻿" id="W5M0MpCehiHzreSzNTczkc9d"?>
<x:xmpmeta xmlns:x="adobe:ns:meta/" x:xmptk="Adobe XMP Core 5.6-c140 79.160451, 2017/05/06-01:08:21        ">
   <rdf:RDF xmlns:rdf="http://www.w3.org/1999/02/22-rdf-syntax-ns#">
      <rdf:Description rdf:about=""/>
   </rdf:RDF>
</x:xmpmeta>
                                                                                                    
                                                                                                    
                                                                                                    
                                                                                                    
                                                                                                    
                                                                                                    
                                                                                                    
                                                                                                    
                                                                                                    
                                                                                                    
                                                                                                    
                                                                                                    
                                                                                                    
                                                                                                    
                                                                                                    
                                                                                                    
                                                                                                    
                                                                                                    
                                                                                                    
                                                                                                    
                           
<?xpacket end="w"?></metadata>
<defs>
    <style>
      .cls-1 {
        fill: #fff;
        fill-rule: evenodd;
      }
    </style>
  </defs>
  <path id="Forma_1" data-name="Forma 1" class="cls-1" d="M43.4,3.251L36.584,3.24c-7.655,0-12.6,5.09-12.6,12.969v5.979H17.132a1.073,1.073,0,0,0-1.071,1.075v8.663A1.073,1.073,0,0,0,17.132,33h6.851V54.862a1.073,1.073,0,0,0,1.071,1.075h8.938a1.073,1.073,0,0,0,1.071-1.075V33h8.01a1.073,1.073,0,0,0,1.071-1.075l0-8.663a1.074,1.074,0,0,0-1.072-1.075H35.064V17.119c0-2.436.579-3.673,3.743-3.673l4.59,0a1.073,1.073,0,0,0,1.071-1.074V4.326A1.073,1.073,0,0,0,43.4,3.251Z"/>
</svg>
