<svg id="圖層_1" data-name="圖層 1" xmlns="http://www.w3.org/2000/svg" viewBox="0 0 99.21 99.21"><defs><style>.cls-1,.cls-2{fill:#262626;}.cls-2{fill-rule:evenodd;}</style></defs><title>svg</title><path class="cls-1" d="M49.61.33A49.3,49.3,0,1,1,14.77,14.77,49.08,49.08,0,0,1,49.61.33ZM81.75,17.49A45.51,45.51,0,1,0,95,49.61,45.4,45.4,0,0,0,81.75,17.49Z"/><path class="cls-2" d="M53.37,39.52v-4a2.11,2.11,0,0,1,2.21-2.4h5.65V24.47H53.45c-8.65,0-10.58,6.38-10.58,10.53v4.52h-5V49.59h5.07V74.75H53V49.59h7.45l.33-4,.6-6.12Z"/><path class="cls-1" d="M49.61.33A49.3,49.3,0,1,1,14.77,14.77,49.08,49.08,0,0,1,49.61.33ZM81.75,17.49A45.51,45.51,0,1,0,95,49.61,45.4,45.4,0,0,0,81.75,17.49Z"/><path class="cls-2" d="M53.37,39.52v-4a2.11,2.11,0,0,1,2.21-2.4h5.65V24.47H53.45c-8.65,0-10.58,6.38-10.58,10.53v4.52h-5V49.59h5.07V74.75H53V49.59h7.45l.33-4,.6-6.12Z"/></svg>