<svg id="ig" xmlns="http://www.w3.org/2000/svg" viewBox="0 0 99.21 99.21"><defs><style>.cls-1,.cls-2{fill:#262626;}.cls-2{fill-rule:evenodd;}</style></defs><title>ig</title><path class="cls-1" d="M49.61.42a49.18,49.18,0,0,1,34.77,84A49.18,49.18,0,1,1,49.61.42ZM81.69,17.55A45.41,45.41,0,1,0,95,49.61,45.32,45.32,0,0,0,81.69,17.55Z"/><path class="cls-2" d="M37,49.59A12.6,12.6,0,1,1,49.59,62.2,12.62,12.62,0,0,1,37,49.59ZM62.61,25h-26A11.67,11.67,0,0,0,25,36.6v26A11.7,11.7,0,0,0,36.6,74.27h26A11.69,11.69,0,0,0,74.27,62.61v-26A11.66,11.66,0,0,0,62.61,25Zm-26,2.91h26a8.75,8.75,0,0,1,8.74,8.74v26a8.75,8.75,0,0,1-8.74,8.74h-26a8.75,8.75,0,0,1-8.74-8.74v-26a8.75,8.75,0,0,1,8.74-8.74Zm28.6,3.68a2.56,2.56,0,1,0,2.56,2.56,2.55,2.55,0,0,0-2.56-2.56Zm.3,18.05A15.91,15.91,0,1,0,49.59,65.5,15.9,15.9,0,0,0,65.5,49.59Z"/></svg>