<svg id="圖層_1" data-name="圖層 1" xmlns="http://www.w3.org/2000/svg" viewBox="0 0 56.75 54.07"><defs><style>.cls-1{fill:#fff;}.cls-2{fill:#2bac38;}</style></defs><title>line2</title><g id="TYPE_A" data-name="TYPE A"><path class="cls-1" d="M58.54,25.53c0-12.7-12.73-23-28.37-23S1.79,12.83,1.79,25.53c0,11.38,10.1,20.91,23.73,22.72.93.2,2.18.61,2.5,1.4a5.68,5.68,0,0,1,.09,2.56l-.4,2.43c-.13.72-.57,2.81,2.46,1.53S46.51,46.55,52.46,39.7h0c4.11-4.51,6.08-9.09,6.08-14.17" transform="translate(-1.79 -2.5)"/><path class="cls-2" d="M24.4,19.39h-2a.55.55,0,0,0-.55.55V32.31a.55.55,0,0,0,.55.55h2a.55.55,0,0,0,.55-.55V19.94a.55.55,0,0,0-.55-.55" transform="translate(-1.79 -2.5)"/><path class="cls-2" d="M38.1,19.39h-2a.55.55,0,0,0-.55.55v7.35l-5.67-7.65,0-.06h0l0,0h0l0,0h0l0,0h0l0,0H27.44a.55.55,0,0,0-.55.55V32.31a.55.55,0,0,0,.55.55h2a.55.55,0,0,0,.55-.55V25l5.68,7.67a.44.44,0,0,0,.14.13h0l0,0H36l.14,0h2a.55.55,0,0,0,.55-.55V19.94a.55.55,0,0,0-.55-.55" transform="translate(-1.79 -2.5)"/><path class="cls-2" d="M19.6,29.76H14.19V19.94a.55.55,0,0,0-.55-.55h-2a.55.55,0,0,0-.55.55V32.31h0a.56.56,0,0,0,.15.38h0a.56.56,0,0,0,.38.15h8a.55.55,0,0,0,.55-.55v-2a.55.55,0,0,0-.55-.56" transform="translate(-1.79 -2.5)"/><path class="cls-2" d="M49.09,22.49a.55.55,0,0,0,.55-.56v-2a.55.55,0,0,0-.55-.55h-8a.53.53,0,0,0-.38.16h0a.58.58,0,0,0-.15.38h0V32.31h0a.56.56,0,0,0,.15.38h0a.53.53,0,0,0,.38.16h8a.55.55,0,0,0,.55-.55v-2a.55.55,0,0,0-.55-.56H43.68V27.67h5.41a.54.54,0,0,0,.55-.55v-2a.54.54,0,0,0-.55-.55H43.68V22.49Z" transform="translate(-1.79 -2.5)"/></g></svg>