<svg id="copy_2" data-name="copy 2" xmlns="http://www.w3.org/2000/svg" width="60" height="60" viewBox="0 0 60 60">
  <metadata><?xpacket begin="﻿" id="W5M0MpCehiHzreSzNTczkc9d"?>
<x:xmpmeta xmlns:x="adobe:ns:meta/" x:xmptk="Adobe XMP Core 5.6-c140 79.160451, 2017/05/06-01:08:21        ">
   <rdf:RDF xmlns:rdf="http://www.w3.org/1999/02/22-rdf-syntax-ns#">
      <rdf:Description rdf:about=""/>
   </rdf:RDF>
</x:xmpmeta>
                                                                                                    
                                                                                                    
                                                                                                    
                                                                                                    
                                                                                                    
                                                                                                    
                                                                                                    
                                                                                                    
                                                                                                    
                                                                                                    
                                                                                                    
                                                                                                    
                                                                                                    
                                                                                                    
                                                                                                    
                                                                                                    
                                                                                                    
                                                                                                    
                                                                                                    
                                                                                                    
                           
<?xpacket end="w"?></metadata>
<defs>
    <style>
      .cls-1 {
        fill: #fff;
        fill-rule: evenodd;
      }
    </style>
  </defs>
  <path class="cls-1" d="M32.01,25.845a1.474,1.474,0,0,0,0,2.088,6.156,6.156,0,0,1,0,8.68L19.477,49.184a6.111,6.111,0,0,1-8.653,0L8.939,47.293a6.156,6.156,0,0,1,0-8.68L21.472,26.042a1.474,1.474,0,1,0-2.081-2.088L6.857,36.525a9.1,9.1,0,0,0,0,12.855l1.885,1.891a9.057,9.057,0,0,0,12.816,0L34.091,38.7a9.125,9.125,0,0,0,0-12.855A1.464,1.464,0,0,0,32.01,25.845ZM54.166,9.328L52.28,7.437a9.057,9.057,0,0,0-12.816,0L26.931,20.008a9.124,9.124,0,0,0,0,12.855,1.474,1.474,0,1,0,2.081-2.088,6.156,6.156,0,0,1,0-8.679L41.546,9.524a6.11,6.11,0,0,1,8.653,0l1.885,1.891a6.156,6.156,0,0,1,0,8.68L39.551,32.666a1.481,1.481,0,0,0,1.035,2.525,1.434,1.434,0,0,0,1.035-.437L54.155,22.183A9.112,9.112,0,0,0,54.166,9.328Z"/>
</svg>
