<?xml version="1.0" encoding="utf-8"?>
<!-- Generator: Adobe Illustrator 22.0.1, SVG Export Plug-In . SVG Version: 6.00 Build 0)  -->
<svg version="1.1" id="圖層_1" xmlns="http://www.w3.org/2000/svg" xmlns:xlink="http://www.w3.org/1999/xlink" x="0px" y="0px"
	 viewBox="0 0 60 62.6" style="enable-background:new 0 0 60 62.6;" xml:space="preserve">
<style type="text/css">
	.st0{display:none;opacity:0.32;}
	.st1{display:inline;}
	.st2{display:none;}
	.st3{display:inline;fill:#F65643;stroke:#F65643;stroke-width:0.9705;stroke-miterlimit:10;}
	.st4{clip-path:url(#SVGID_2_);fill:#FFFFFF;}
	.st5{display:inline;fill:#231815;}
	.st6{font-family:'ArialMT';}
	.st7{font-size:9.3312px;}
	.st8{fill:#FFFFFF;}
	.st9{fill:#D7000F;stroke:#231815;stroke-width:0.6324;stroke-linecap:round;stroke-linejoin:round;stroke-miterlimit:10;}
	.st10{fill:#FFFFFF;stroke:#231815;stroke-width:0.6324;stroke-linecap:round;stroke-linejoin:round;stroke-miterlimit:10;}
	.st11{fill:#231815;}
	.st12{fill:none;stroke:#231815;stroke-width:0.6324;stroke-linecap:round;stroke-linejoin:round;stroke-miterlimit:10;}
	.st13{display:inline;fill:none;stroke:#F65643;stroke-width:0.4852;stroke-miterlimit:10;}
	.st14{fill:#F65643;stroke:#F65643;stroke-width:1.2852;stroke-miterlimit:10;}
	.st15{clip-path:url(#SVGID_4_);fill:#FFFFFF;}
	.st16{fill:#D7000F;stroke:#231815;stroke-width:0.6627;stroke-linecap:round;stroke-linejoin:round;stroke-miterlimit:10;}
	.st17{fill:#FFFFFF;stroke:#231815;stroke-width:0.6627;stroke-linecap:round;stroke-linejoin:round;stroke-miterlimit:10;}
	.st18{fill:none;stroke:#231815;stroke-width:0.6627;stroke-linecap:round;stroke-linejoin:round;stroke-miterlimit:10;}
	.st19{display:none;fill:none;stroke:#F65643;stroke-width:0.5085;stroke-miterlimit:10;}
	.st20{display:none;fill:#FFFFFF;enable-background:new    ;}
	.st21{font-size:10.3466px;}
	.st22{enable-background:new    ;}
	.st23{fill:#FFFFFF;stroke:#FFFFFF;stroke-width:0.2414;stroke-miterlimit:10;}
</style>
<g id="圖層_2_1_" class="st0">
	<path class="st1" d="M140,138H-14c-6.6,0-12-5.4-12-12V-36c0-6.6,5.4-12,12-12h154c6.6,0,12,5.4,12,12v162
		C152,132.6,146.6,138,140,138z"/>
</g>
<g id="share_拷貝" class="st2">
	<circle class="st3" cx="31" cy="28.4" r="21"/>
	<g class="st1">
		<g>
			<defs>
				<ellipse id="SVGID_1_" cx="31.6" cy="45.4" rx="12.8" ry="10.6"/>
			</defs>
			<clipPath id="SVGID_2_">
				<use xlink:href="#SVGID_1_"  style="overflow:visible;"/>
			</clipPath>
			<circle class="st4" cx="31" cy="27.4" r="21.6"/>
		</g>
	</g>
	<text transform="matrix(1.0045 0 0 1 14.3271 59.4088)" class="st5 st6 st7">boxman</text>
	<g class="st1">
		<path class="st8" d="M21.7,32.4c-0.2,0-2.8,5.2-2.8,5.2l-0.4,1.2l1,0.9l-0.1,3.8L44,44.2V40c0,0-0.6-7.9-0.5-8.1
			C43.5,31.7,21.7,32.4,21.7,32.4z"/>
		<path class="st9" d="M22.6,34.4c0,0,6.6,5.5,9.1,5.5c3.5,0,9.2-5.6,9.2-5.6l-0.6-2.4H24L22.6,34.4z"/>
		<g>
			<g>
				<polygon class="st8" points="37,35.8 35.7,36.6 35.7,36.6 36.9,35.8 				"/>
				<polygon class="st8" points="37,36 35.7,36.8 35.7,36.7 37,35.9 				"/>
				<polygon class="st8" points="37.1,36.2 35.8,37 35.8,36.9 37,36.1 				"/>
			</g>
			<path class="st8" d="M33.8,36.9C33.7,36.8,33.7,36.8,33.8,36.9C33.7,36.8,33.7,36.8,33.8,36.9c-0.1,0-0.1,0-0.2,0c0,0,0,0,0,0.1
				l0.1,0.2l-0.4,0.3v-0.1c0-0.2,0-0.3,0-0.4c0.1-0.1,0.2-0.2,0.4-0.3s0.3-0.2,0.4-0.1c0.1,0,0.2,0.1,0.2,0.2c0,0.1,0,0.4-0.1,0.8
				c0,0.1,0,0.1-0.1,0.2c0,0.1-0.1,0.3-0.1,0.3c0,0.1,0,0.1,0,0.1l0.6-0.4l0.1,0.3l-1,0.6l-0.1-0.3c0-0.1,0-0.1,0-0.2
				c0-0.1,0-0.2,0.1-0.4c0,0,0-0.1,0.1-0.2C33.9,37.3,34,37.1,33.8,36.9L33.8,36.9z"/>
			<polygon class="st8" points="35.2,37.6 35.1,37.2 34.4,37.6 34.4,37.4 34.5,36.1 35.1,35.7 35.3,36.7 35,36.9 34.8,36.2 
				34.8,36.2 34.8,37.1 35.6,36.6 35.7,36.9 35.4,37 35.6,37.4 			"/>
			<path class="st8" d="M35.6,36.5l-0.3-0.9l0.4-0.2l0.1,0.4l0,0c0-0.1,0-0.1,0.1-0.2c0,0,0.1-0.1,0.2-0.1c0.1-0.1,0.2-0.1,0.2-0.1
				c0.1,0,0.1,0.1,0.1,0.1l0.1,0.4l-0.4,0.2L36,35.8c0,0,0,0,0-0.1c0,0,0,0-0.1,0c0,0,0,0,0,0.1c0,0,0,0,0,0.1l0.1,0.3L35.6,36.5z"
				/>
		</g>
		<path class="st10" d="M44.2,5.5c-2-0.1-20.3,0.1-22.9,0.5c-1.2,0.2-6.5,3.4-7.1,4.3c-0.3,0.5-0.5,3.6-0.6,5.4
			c0,1.8-0.7,12.8,0.2,15.7s4.2,2.9,4.2,2.9c1.2,0,7.3,0.3,8.5,0.3c1.8-0.1,5.6-0.1,7.3-0.1s10.1-0.2,12.1-0.5
			c2.2-0.3,3.2-1.7,3.4-3.3c0.2-2.1,0.3-3.8,0.3-9.6s-0.4-9.9-0.7-11.1C48.7,9.2,44.7,5.6,44.2,5.5z"/>
		<path class="st10" d="M49,10.2l-34.8,0.3c-0.3,0.8-0.5,3.6-0.5,5.3c0,1.8-0.7,12.8,0.2,15.7s4.2,2.9,4.2,2.9
			c1.2,0,7.3,0.3,8.5,0.3c1.8-0.1,5.6-0.1,7.3-0.1S44,34.4,46,34.1c2.2-0.3,3.2-1.7,3.4-3.3c0.2-2.1,0.3-3.8,0.3-9.6
			C49.6,15.5,49.3,11.5,49,10.2z"/>
		<path class="st11" d="M43,15.8c0,0-3.4,0.3-3.7,0.3s-1.1,0-1.1,0.7c0,0.7-0.1,1.2,0.2,1.4c0.3,0.1,2.3,0,3,0s2.2,0.1,2.5,0
			c0.3-0.2,0.5-0.7,0.6-1c0.1-0.3-0.1-1-0.3-1.1C43.9,16,43.6,15.7,43,15.8z"/>
		<path class="st11" d="M41,22.8c0,0,0.7-0.3,0.6-1.4c-0.1-1.1-1.1-1.3-1.7-1.2c-0.6,0.1-1.1,0.5-1.3,1.1c-0.1,0.6-0.3,1.1,0.5,1.6
			C39.9,23.3,40.6,23,41,22.8z"/>
		<path class="st11" d="M23.7,18.2c0,0-2,0.2-2.7,0.2s-1.3-0.1-1.7-0.1c-0.4,0-0.9-0.1-1-1c0-0.8,0.1-1.1,0.8-1.1
			c0.7-0.1,2.7-0.1,3.1-0.1s1.6-0.1,1.9,0c0.4,0,0.7,0.1,0.8,0.5c0,0.4-0.1,1.1-0.1,1.2C24.9,18,24.7,18.2,23.7,18.2z"/>
		<path class="st11" d="M24.3,21.5c0,0,0-0.6-0.9-0.9s-1.7-0.1-2,0.4s-0.2,1.4,0.1,1.8c0.3,0.4,0.9,0.7,2,0.4
			C24.5,22.9,24.4,21.9,24.3,21.5z"/>
		<g>
			<path class="st11" d="M32.5,23.2c0,0,0.2,0.4,0.6,0.3c0.3-0.1,0.4-0.4,0.2-0.8c-0.1-0.3-0.6-0.1-0.7,0
				C32.4,22.9,32.3,23.1,32.5,23.2z"/>
			<path class="st11" d="M29.2,23.2c0,0.1,0.1,0.1,0.1,0.2c0.2,0.2,0.6,0.3,0.7,0.1c0.1-0.1,0.1-0.3,0-0.5c-0.1-0.1-0.2-0.1-0.2-0.2
				c-0.1-0.1-0.3-0.1-0.5,0C29.2,22.9,29.1,23,29.2,23.2z"/>
			<path class="st12" d="M34.6,24.1c0,0,0.9,1.2-1.4,1.6c-2.2,0.3-3.4,0.1-4.2,0c-0.9-0.2-1.2-0.8-0.9-1.3"/>
		</g>
		<g>
			<path class="st10" d="M21.1,34.6C17.9,33,17,31.4,17,31.4s0.8-0.7,0.4-1.1c-0.4-0.5-1.2,0.2-1.2,0.2s0.1-1.4-0.7-1.4
				c-0.6,0-0.4,1.2-0.4,1.2s-0.4-0.9-0.9-0.7C13.6,30,14.4,31,14.4,31s-1-0.7-1.3-0.1C12.7,31.6,14,32,14,32s-1,0-0.9,0.6
				c0.2,0.7,1.3,0.4,1.3,0.4c1.1,3.1,3.6,5.8,5.1,7.1c0,0-0.5,3.6-0.5,5"/>
		</g>
		<g>
			<path class="st10" d="M42.9,34.3c3.3-1.3,4.3-3,4.3-3s-0.7-0.8-0.4-1.2c0.5-0.5,1.2,0.3,1.2,0.3s0-1.4,0.8-1.3
				c0.6,0.1,0.3,1.2,0.3,1.2s0.5-0.9,0.9-0.6c0.7,0.4-0.2,1.3-0.2,1.3s1-0.6,1.3-0.1c0.4,0.8-0.9,1-0.9,1s1,0.1,0.8,0.7
				c-0.2,0.7-1.3,0.4-1.3,0.4c-1.3,3.1-3.9,5.5-5.5,6.8c0,0,0,3.7,0,4.3"/>
		</g>
	</g>
	<path class="st13" d="M52,28.4c0,11.6-9.4,21-21,21s-21-9.4-21-21"/>
</g>
<g id="share_拷貝_2">
	<circle class="st14" cx="30" cy="33.7" r="27.8"/>
	<g class="st2">
		<g class="st1">
			<defs>
				<ellipse id="SVGID_3_" cx="28.5" cy="47.3" rx="13.4" ry="11.1"/>
			</defs>
			<clipPath id="SVGID_4_">
				<use xlink:href="#SVGID_3_"  style="overflow:visible;"/>
			</clipPath>
			<circle class="st15" cx="27.9" cy="28.5" r="22.6"/>
		</g>
	</g>
	<g>
		<path class="st8" d="M20.4,29.3c-0.2,0.1-3,5.5-3,5.5L17,36l1,1l-0.1,4c0,0,1.2,1.5,11.9,1.5c10.8,0,14-0.9,14-0.9l-0.1-4.4
			c0,0-0.6-8.3-0.5-8.5C43.2,28.6,20.4,29.3,20.4,29.3z"/>
		<path class="st16" d="M21.3,31.3c0,0,6.9,5.8,9.6,5.8c3.7,0,9.6-5.9,9.6-5.9l-0.6-2.5H22.8L21.3,31.3z"/>
		<g>
			<g>
				<polygon class="st8" points="36.4,32.9 35,33.7 35,33.6 36.3,32.8 				"/>
				<polygon class="st8" points="36.4,33.1 35.1,33.9 35.1,33.8 36.4,33 				"/>
				<polygon class="st8" points="36.5,33.2 35.1,34.1 35.1,34 				"/>
			</g>
			<path class="st8" d="M33,34C33,33.9,33,33.9,33,34C32.9,33.9,32.9,33.9,33,34c-0.1,0-0.1,0-0.2,0.1c0,0,0,0,0,0.1l0.1,0.2
				l-0.4,0.2v-0.1c0-0.2,0-0.3,0-0.4c0.1-0.1,0.2-0.2,0.4-0.4c0.2-0.1,0.3-0.2,0.4-0.2c0.1,0,0.2,0.1,0.2,0.2c0,0.2,0,0.4-0.1,0.8
				c0,0.1,0,0.1-0.1,0.2c-0.1,0.1-0.1,0.3-0.1,0.4c0,0.1,0,0.1,0,0.1l0.6-0.4l0.1,0.3l-1.1,0.7l-0.1-0.3c0-0.1,0-0.2,0-0.2
				c0-0.1,0.1-0.2,0.1-0.4c0,0,0-0.1,0.1-0.2C33,34.4,33.1,34.2,33,34L33,34z"/>
			<polygon class="st8" points="34.5,34.8 34.4,34.3 33.7,34.7 33.7,34.5 33.7,33.2 34.4,32.8 34.7,33.7 34.3,34 34.1,33.3 
				34.1,33.3 34.1,34.2 34.9,33.7 35,34 34.8,34.1 34.9,34.5 			"/>
			<path class="st8" d="M35,33.6l-0.3-1l0.4-0.3l0.1,0.5l0,0c0-0.1,0-0.1,0.1-0.2c0-0.1,0.1-0.1,0.2-0.1c0.1-0.1,0.2-0.1,0.2-0.1
				c0.1,0,0.1,0.1,0.1,0.1l0.1,0.4l-0.4,0.3l-0.1-0.3v-0.1c0,0,0,0-0.1,0c0,0,0,0,0,0.1c0,0,0,0,0,0.1l0.1,0.3L35,33.6z"/>
		</g>
		<path class="st17" d="M44,1.1c-2-0.2-21.3,0.1-24,0.6c-1.3,0.2-6.8,3.5-7.4,4.5c-0.3,0.5-0.5,3.8-0.6,5.7s-0.8,13.4,0.2,16.5
			s4.4,3.1,4.4,3.1c1.2,0,7.7,0.3,8.9,0.3c1.8-0.1,5.9-0.1,7.7-0.1c1.8,0,10.6-0.2,12.7-0.5c2.3-0.3,3.4-1.7,3.5-3.5
			c0.2-2.2,0.3-3.9,0.3-10.1S49.2,7.2,48.9,5.9C48.7,4.9,44.5,1.2,44,1.1z"/>
		<path class="st17" d="M49,6L12.5,6.3c-0.3,0.8-0.5,3.8-0.5,5.5c0,1.9-0.8,13.4,0.2,16.5s4.4,3.1,4.4,3.1c1.2,0,7.7,0.3,8.9,0.3
			c1.8-0.1,5.9-0.1,7.7-0.1c1.8,0,10.6-0.2,12.7-0.5c2.3-0.3,3.4-1.7,3.5-3.5c0.2-2.2,0.3-3.9,0.3-10.1C49.6,11.5,49.3,7.4,49,6z"/>
		<path class="st11" d="M42.7,11.9c0,0-3.6,0.3-3.9,0.3c-0.3,0.1-1.1,0-1.1,0.8s-0.1,1.3,0.2,1.4c0.3,0.2,2.4,0,3.2,0
			c0.7,0,2.3,0.1,2.6,0c0.4-0.2,0.5-0.7,0.6-1s-0.1-1-0.3-1.1C43.7,12.1,43.4,11.8,42.7,11.9z"/>
		<path class="st11" d="M40.6,19.2c0,0,0.8-0.3,0.7-1.5s-1.2-1.4-1.8-1.3c-0.7,0.1-1.2,0.6-1.3,1.1c-0.1,0.6-0.4,1.1,0.5,1.6
			S40.2,19.4,40.6,19.2z"/>
		<path class="st11" d="M22.5,14.4c0,0-2.1,0.2-2.8,0.2c-0.7,0-1.4-0.1-1.7-0.1c-0.4,0-1-0.2-1-1s0.1-1.1,0.8-1.2
			c0.7-0.1,2.8-0.1,3.2-0.1c0.4,0,1.7-0.1,2-0.1c0.4,0,0.8,0.1,0.8,0.5s-0.1,1.1-0.1,1.3C23.7,14.2,23.5,14.4,22.5,14.4z"/>
		<path class="st11" d="M23.1,17.8c0,0,0-0.6-1-0.9c-0.9-0.3-1.7-0.1-2.1,0.4s-0.2,1.4,0.1,1.8c0.4,0.4,1,0.7,2.1,0.4
			C23.3,19.3,23.2,18.3,23.1,17.8z"/>
		<g>
			<path class="st11" d="M31.6,19.7c0,0,0.3,0.4,0.6,0.3c0.3-0.1,0.4-0.4,0.2-0.8s-0.7-0.1-0.7,0C31.6,19.3,31.5,19.5,31.6,19.7z"/>
			<path class="st11" d="M28.2,19.6c0,0.1,0.1,0.1,0.1,0.2c0.2,0.2,0.6,0.3,0.8,0.1c0.1-0.1,0.1-0.3,0-0.5c-0.1-0.1-0.2-0.1-0.3-0.2
				c-0.2-0.1-0.3-0.1-0.5,0C28.3,19.3,28.2,19.5,28.2,19.6z"/>
			<path class="st18" d="M33.9,20.6c0,0,0.9,1.3-1.5,1.7c-2.3,0.3-3.6,0.1-4.4,0c-0.9-0.2-1.2-0.9-1-1.4"/>
		</g>
		<g>
			<path class="st17" d="M19.8,31.6c-3.4-1.6-4.3-3.4-4.3-3.4s0.8-0.8,0.4-1.2c-0.5-0.5-1.2,0.3-1.2,0.3s0.1-1.5-0.8-1.4
				c-0.7,0-0.4,1.2-0.4,1.2s-0.4-1-0.9-0.7c-0.8,0.4,0.1,1.4,0.1,1.4s-1-0.7-1.3-0.1c-0.4,0.8,0.9,1.1,0.9,1.1s-1.1,0-0.9,0.6
				c0.2,0.8,1.3,0.4,1.3,0.4c1.2,3.3,3.8,6,5.4,7.5c0,0-0.2,2.2-0.3,3.7"/>
		</g>
		<g>
			<path class="st17" d="M42.6,31.3c3.5-1.4,4.5-3.1,4.5-3.1s-0.8-0.8-0.4-1.2c0.5-0.5,1.2,0.3,1.2,0.3s0-1.5,0.9-1.4
				c0.7,0.1,0.3,1.3,0.3,1.3s0.5-0.9,1-0.7c0.8,0.4-0.2,1.4-0.2,1.4s1-0.6,1.3-0.1c0.4,0.8-1,1.1-1,1.1s1.1,0.1,0.9,0.7
				c-0.2,0.8-1.4,0.4-1.4,0.4c-1.4,3.2-4.1,5.8-5.8,7.1c0,0,0.1,3.9,0,4.5"/>
		</g>
	</g>
	<path class="st19" d="M49.8,29.5c0,12.1-9.8,22-22,22s-22-9.8-22-22"/>
	<text transform="matrix(0.9702 0 0 1 8.875 52.4107)" class="st20 st6 st21">boxman</text>
	<g class="st22">
		<path class="st23" d="M12.1,52v-6.4h2.4c0.5,0,0.9,0.1,1.2,0.2c0.3,0.1,0.5,0.3,0.7,0.6c0.2,0.3,0.2,0.6,0.2,0.8
			c0,0.3-0.1,0.5-0.2,0.8c-0.1,0.2-0.4,0.4-0.7,0.6c0.4,0.1,0.7,0.3,0.9,0.6c0.2,0.3,0.3,0.6,0.3,1c0,0.3-0.1,0.6-0.2,0.8
			c-0.1,0.3-0.3,0.5-0.5,0.6c-0.2,0.1-0.4,0.2-0.7,0.3c-0.3,0.1-0.6,0.1-1,0.1H12.1z M12.9,48.3h1.4c0.4,0,0.6,0,0.8-0.1
			c0.2-0.1,0.4-0.2,0.5-0.3c0.1-0.1,0.2-0.3,0.2-0.6c0-0.2-0.1-0.4-0.2-0.6c-0.1-0.2-0.2-0.3-0.4-0.3s-0.5-0.1-1-0.1h-1.3V48.3z
			 M12.9,51.2h1.6c0.3,0,0.5,0,0.6,0c0.2,0,0.4-0.1,0.5-0.2c0.1-0.1,0.2-0.2,0.3-0.4c0.1-0.2,0.1-0.3,0.1-0.5c0-0.2-0.1-0.4-0.2-0.6
			c-0.1-0.2-0.3-0.3-0.5-0.4c-0.2-0.1-0.5-0.1-0.9-0.1h-1.5V51.2z"/>
		<path class="st23" d="M17.7,48.9c0-1.1,0.3-1.9,0.8-2.5c0.6-0.6,1.3-0.9,2.2-0.9c0.6,0,1.1,0.1,1.6,0.4c0.5,0.3,0.8,0.7,1.1,1.2
			c0.2,0.5,0.4,1.1,0.4,1.7c0,0.7-0.1,1.2-0.4,1.8c-0.3,0.5-0.6,0.9-1.1,1.2c-0.5,0.3-1,0.4-1.5,0.4c-0.6,0-1.1-0.1-1.6-0.4
			c-0.5-0.3-0.8-0.7-1.1-1.2C17.9,50,17.7,49.4,17.7,48.9z M18.6,48.9c0,0.8,0.2,1.4,0.6,1.8c0.4,0.4,0.9,0.7,1.5,0.7
			c0.6,0,1.2-0.2,1.6-0.7s0.6-1.1,0.6-1.9c0-0.5-0.1-1-0.3-1.4c-0.2-0.4-0.4-0.7-0.8-0.9c-0.3-0.2-0.7-0.3-1.1-0.3
			c-0.6,0-1.1,0.2-1.5,0.6C18.8,47.2,18.6,47.9,18.6,48.9z"/>
		<path class="st23" d="M24.3,52l2.5-3.4l-2.2-3.1h1l1.2,1.6c0.2,0.3,0.4,0.6,0.5,0.8c0.1-0.2,0.3-0.5,0.5-0.7l1.3-1.7h0.9l-2.2,3
			l2.4,3.4h-1l-1.6-2.3c-0.1-0.1-0.2-0.3-0.3-0.4c-0.1,0.2-0.2,0.4-0.3,0.5L25.3,52H24.3z"/>
		<path class="st23" d="M30.8,52v-6.4h1.3l1.5,4.6c0.1,0.4,0.2,0.7,0.3,1c0.1-0.2,0.2-0.6,0.3-1l1.5-4.5h1.1V52H36v-5.4L34.2,52
			h-0.8l-1.8-5.5V52H30.8z"/>
		<path class="st23" d="M37.5,52l2.4-6.4h0.9l2.6,6.4h-1L41.8,50h-2.7L38.4,52H37.5z M39.3,49.3h2.2l-0.7-1.8
			c-0.2-0.5-0.4-1-0.5-1.3c-0.1,0.4-0.2,0.8-0.3,1.2L39.3,49.3z"/>
		<path class="st23" d="M44.1,52v-6.4H45l3.3,5v-5h0.8V52h-0.9l-3.3-5.1V52H44.1z"/>
	</g>
</g>
</svg>
